<svg width="30" height="30" viewBox="0 0 30 30" fill="none" xmlns="http://www.w3.org/2000/svg">
<path d="M21.53 0.000488281C26.5955 0.000488281 29.999 3.54349 29.999 8.83249V21.1535C29.999 21.38 29.9585 21.5825 29.9465 21.8015C29.939 21.929 29.9405 22.0565 29.93 22.184C29.924 22.241 29.9075 22.2935 29.9015 22.3505C29.852 22.8215 29.7755 23.2715 29.669 23.708C29.642 23.825 29.6105 23.9375 29.579 24.0515C29.459 24.4745 29.318 24.878 29.1485 25.2635C29.099 25.3715 29.045 25.475 28.994 25.5815C28.811 25.949 28.613 26.3015 28.3835 26.6285L28.1615 26.9165C27.923 27.2255 27.674 27.521 27.392 27.7895C27.3005 27.8765 27.197 27.9515 27.101 28.034C26.8115 28.283 26.516 28.5215 26.1905 28.7255C26.0735 28.799 25.9445 28.853 25.8245 28.919C25.493 29.102 25.1585 29.2805 24.794 29.4185C24.644 29.4755 24.4775 29.5055 24.3215 29.555C23.963 29.666 23.609 29.7815 23.2235 29.8475C23.1265 29.8645 23.0267 29.8765 22.9254 29.8859L22.31 29.93C22.049 29.9495 21.8015 30.0005 21.53 30.0005H8.45602C7.89202 30.0005 7.35352 29.9435 6.83302 29.858C6.81352 29.855 6.79552 29.852 6.77752 29.849C4.74802 29.4995 3.06352 28.52 1.88302 27.0425C1.86952 27.0425 1.86952 27.0275 1.85602 27.014C0.669523 25.52 -0.000976562 23.5115 -0.000976562 21.1535V8.83249C-0.000976562 3.54349 3.40552 0.000488281 8.45602 0.000488281H21.53ZM21.53 2.09299H8.45602C4.59052 2.09299 2.09302 4.74349 2.09302 8.83249V21.1535C2.09302 22.301 2.30602 23.3255 2.67052 24.212C2.71702 24.1565 5.62252 20.6135 5.63602 20.6015C6.67402 19.4165 8.62252 17.6495 11.18 18.719C11.795 18.974 12.335 19.3325 12.83 19.6475C13.6895 20.222 14.195 20.492 14.72 20.447C14.9375 20.417 15.1415 20.3525 15.335 20.2325C16.172 19.7165 18.5375 16.2665 18.68 16.079C20.315 13.949 22.835 13.379 24.935 14.639C25.076 14.723 25.6516 15.1179 26.2756 15.5626L26.7467 15.9014C27.2147 16.2415 27.6556 16.5729 27.9065 16.7855V8.83249C27.9065 4.74349 25.409 2.09299 21.53 2.09299ZM9.71795 5.99989C10.7645 5.99989 11.7121 6.43996 12.3909 7.14204C13.0726 7.81952 13.4999 8.75322 13.4999 9.77233C13.4999 11.8048 11.7993 13.4999 9.75719 13.4999C7.96213 13.4999 6.43161 12.1884 6.08859 10.4903C6.0319 10.2356 5.99992 9.97354 5.99992 9.70284C5.99992 7.65594 7.66271 5.99989 9.71795 5.99989Z" fill="#A4A4A4"/>
</svg>
