<svg width="17" height="20" viewBox="0 0 17 20" fill="none" xmlns="http://www.w3.org/2000/svg">
<path d="M8.3722 5.09922e-05C11.2262 5.09922e-05 13.5542 2.25672 13.6688 5.08267L13.6732 5.30115L13.6739 6.87724C15.4501 7.49409 16.725 9.18236 16.725 11.1689V15.4579C16.725 17.9668 14.6915 19.9999 12.183 19.9999H4.542C2.03347 19.9999 0 17.9668 0 15.4579V11.1689C0 9.18199 1.27541 7.49345 3.05212 6.8769L3.0522 5.27787C3.06502 2.34987 5.44806 -0.0126526 8.3722 5.09922e-05ZM12.183 8.12695H4.542C2.86184 8.12695 1.5 9.48854 1.5 11.1689V15.4579C1.5 17.1384 2.86184 18.4999 4.542 18.4999H12.183C13.8632 18.4999 15.225 17.1384 15.225 15.4579V11.1689C15.225 9.48854 13.8632 8.12695 12.183 8.12695ZM8.3627 11.453C8.7424 11.453 9.05619 11.7352 9.10585 12.1013L9.1127 12.203V14.424C9.1127 14.8383 8.77691 15.174 8.3627 15.174C7.983 15.174 7.66921 14.8919 7.61955 14.5258L7.6127 14.424V12.203C7.6127 11.7888 7.94849 11.453 8.3627 11.453ZM8.36893 1.5001C6.33555 1.49123 4.66855 3.08061 4.558 5.08583L4.5522 5.28115L4.552 6.626H12.173L12.1732 5.30115C12.1732 3.20235 10.471 1.5001 8.36893 1.5001Z" fill="#A4A4A4"/>
</svg>
